<?xml version="1.0" encoding="UTF-8"?>
<svg xmlns="http://www.w3.org/2000/svg" xmlns:xlink="http://www.w3.org/1999/xlink" width="32px" height="32px" viewBox="0 0 32 32" version="1.1">
<g id="surface1">
<path style=" stroke:none;fill-rule:nonzero;fill:rgb(89.803922%,35.686275%,17.647059%);fill-opacity:1;" d="M 18.070312 4.914062 L 18.070312 9.824219 L 26.578125 14.738281 L 26.578125 9.824219 Z M 1.050781 9.824219 L 1.050781 14.738281 L 5.304688 17.195312 L 5.304688 12.28125 Z M 13.816406 12.28125 L 9.558594 14.738281 L 9.558594 29.476562 L 13.816406 31.933594 L 13.816406 22.109375 L 18.070312 24.566406 L 18.070312 19.652344 L 13.816406 17.195312 Z M 13.816406 12.28125 "/>
<path style=" stroke:none;fill-rule:nonzero;fill:rgb(92.941177%,55.686277%,14.117648%);fill-opacity:1;" d="M 18.070312 4.914062 L 5.304688 12.28125 L 5.304688 17.195312 L 13.816406 12.28125 L 13.816406 17.195312 L 18.070312 14.738281 Z M 30.835938 7.371094 L 26.578125 9.824219 L 26.578125 14.738281 L 30.835938 12.28125 Z M 22.324219 17.195312 L 18.070312 19.652344 L 18.070312 24.566406 L 22.324219 22.109375 Z M 18.070312 24.566406 L 13.816406 22.109375 L 13.816406 31.933594 L 18.070312 29.476562 Z M 18.070312 24.566406 "/>
<path style=" stroke:none;fill-rule:nonzero;fill:rgb(97.254902%,74.901962%,23.529412%);fill-opacity:1;" d="M 18.070312 0 L 1.050781 9.824219 L 5.304688 12.28125 L 18.070312 4.914062 L 26.578125 9.824219 L 30.835938 7.371094 Z M 18.070312 14.738281 L 13.816406 17.195312 L 18.070312 19.652344 L 22.324219 17.195312 Z M 18.070312 14.738281 "/>
</g>
</svg>
